<svg version="1.2" xmlns="http://www.w3.org/2000/svg" viewBox="0 0 1800 1800" width="1800" height="1800">
	<style>
		.s0 { fill: #f63037 } 
		.s1 { fill: #020202;stroke: #000000;paint-order:stroke fill markers;stroke-linejoin: round;stroke-width: 36 } 
		.s2 { fill: #f3efeb } 
	</style>
	<g id="Layer 1">
		<g id="&lt;Group&gt;">
			<g id="&lt;Group&gt;">
				<path id="&lt;Compound Path&gt;" class="s0" d="m324.07 450.74c-15.14 11.49-21.68 29.88-29.36 46.49-77.24 165.34-153.2 331.24-231.42 496.11-9.78 18.03-8.58 41.82 3.82 58.36 12.72 17.27 25.54 34.47 38.52 51.55 9.93 12.09 19.86 25.19 34.52 31.85 30 14.81 59.6 30.45 89.45 45.56 8.65 4.74 18.81 4.58 28.39 4.17 17.27-0.78 32.01-13.27 39.9-28 16.16-33.15 30.92-66.99 46.58-100.37 4.03-8.65 7.25-17.77 12.86-25.57 1.85 39.64-0.54 79.35-0.56 119.04 0.16 10.57-1.31 21.54 2.22 31.75 3.39 10.55 9.74 19.76 16.54 28.39 13.93 17.7 27.16 35.92 41.44 53.33 6.47 8.01 15.26 13.63 24.31 18.25 47.82 23.9 95.18 48.69 142.88 72.81 24.29 11.44 56.01 0.09 67.2-24.38 40.2-86.32 79.44-173.11 119.65-259.43 3.84-8.15 6.45-17.3 13.2-23.65 1.92 31.92-1.14 63.86-0.93 95.8 0.15 13.62-1.32 27.58 2.4 40.9 2.65 9.62 9.21 17.41 15.21 25.14q21.18 27.37 42.53 54.56c10.12 13.08 26.25 18.41 40.26 26.07 41.25 21.16 82.45 42.39 123.73 63.5 17.29 9.12 40.06 8.03 55.2-4.86 15.1-11.8 20.81-30.71 28.67-47.34 39.67-85.09 78.24-170.69 118.45-255.5 1.07 30.93 0.19 61.87 0.21 92.79-0.02 21.8-3.86 46.75 11.83 64.57 17.03 21.63 33.03 44.12 50.96 65.04 10.19 12.34 26 17.01 39.57 24.45 35.54 19.19 71.63 37.34 107.43 56.04 8.03 4.12 16.11 8.79 25.24 10.02 21.87 4.43 44.16-9.62 53.52-29.1 58.79-131.9 119.4-263 179.27-394.43 17.08-38.84 36.32-76.72 52.77-115.87 4.71-10.94 12.01-21.39 12.18-33.74 0.26-10.19 0.35-21.06-4.69-30.26-4.98-8.76-12.47-15.68-18.77-23.48-10.88-13.6-22.18-26.87-33.41-40.2-8.98-10.69-21.82-16.66-33.95-22.96-25.05-12.8-50.12-25.59-74.99-38.72-15.5-8.98-35.62-9.27-51.3-0.64-15.19 8.03-22.84 24.22-29.43 39.24-13.36 30.44-28.55 60.11-41.39 90.79-0.74-3.81-1.31-7.65-1.26-11.54 0.21-37.17-0.38-74.32-0.14-111.5 0.31-14.57-3.37-29.59-11.99-41.49-14-17.56-28.08-35.07-42.01-52.67-6.3-8.01-13.86-15.09-22.89-19.88-26.13-14.62-53.43-27.01-79.85-41.04-20.59-11.21-41.77-21.23-62.5-32.18-11.23-6.01-24.53-9.47-37.2-6.58-17.51 3.08-31.87 16.58-38.77 32.6-41.75 90.8-84.68 181.07-126 272.06-1.38 2.89-3.25 5.49-5.26 7.93-0.43-34.04 0.02-68.12-0.19-102.19-0.29-12.98 1.35-26.3-2.4-38.95-2.79-10.21-8.41-19.43-15.23-27.42-13.79-16.3-26.92-33.14-40.64-49.47-9.36-11.04-22.72-17.32-35.3-23.88-35.3-17.32-69.78-36.33-104.97-53.93-17.2-9.1-35.35-21.94-55.94-16.97-19.88 2.37-34.09 18.91-41.91 36.16-42.04 90.7-84.28 181.29-126.17 272.03q-1.63 2.53-3.79 4.62c0.26-33.26-0.08-66.55-0.1-99.82-0.09-15.54 1.52-31.65-4.22-46.51-4.66-14.45-16.63-24.45-25.59-36.18-9.33-12.01-19.05-23.72-28.57-35.59-8.25-11.35-22.2-15.76-33.72-22.86-35.11-17.75-69.64-36.59-104.89-54-11.87-5.74-22.82-13.56-35.64-17.02-14.71-4.1-31.46-1.2-43.57 8.2z"/>
			</g>
		</g>
		<g id="&lt;Group&gt;">
			<g id="&lt;Group&gt;">
				<path id="&lt;Compound Path&gt;" fill-rule="evenodd" class="s1" d="m324.07 450.74c12.11-9.4 28.86-12.3 43.57-8.2 12.82 3.46 23.77 11.28 35.64 17.02 35.25 17.41 69.78 36.25 104.89 54 11.52 7.1 25.47 11.51 33.72 22.86 9.52 11.87 19.24 23.58 28.57 35.59 8.96 11.73 20.93 21.73 25.59 36.18 5.74 14.86 4.13 30.97 4.22 46.51 0.02 33.27 0.36 66.56 0.1 99.82q2.16-2.09 3.79-4.62c41.89-90.74 84.13-181.33 126.17-272.03 7.82-17.25 22.03-33.79 41.91-36.16 20.59-4.97 38.74 7.87 55.94 16.97 35.19 17.6 69.67 36.61 104.97 53.93 12.58 6.56 25.94 12.84 35.3 23.88 13.72 16.33 26.85 33.17 40.64 49.47 6.82 7.99 12.44 17.21 15.23 27.42 3.75 12.65 2.11 25.97 2.4 38.95 0.21 34.07-0.24 68.15 0.19 102.19 2.01-2.44 3.88-5.04 5.26-7.93 41.32-90.99 84.25-181.26 126-272.06 6.9-16.02 21.26-29.52 38.77-32.6 12.67-2.89 25.97 0.57 37.2 6.58 20.73 10.95 41.91 20.97 62.5 32.18 26.42 14.03 53.72 26.42 79.85 41.04 9.03 4.79 16.59 11.87 22.89 19.88 13.93 17.6 28.01 35.11 42.01 52.67 8.62 11.9 12.3 26.92 11.99 41.49-0.24 37.18 0.35 74.33 0.14 111.5-0.05 3.89 0.52 7.73 1.26 11.54 12.84-30.68 28.03-60.35 41.39-90.79 6.59-15.02 14.24-31.21 29.43-39.24 15.68-8.63 35.8-8.34 51.3 0.64 24.87 13.13 49.94 25.92 74.99 38.72 12.13 6.3 24.97 12.27 33.95 22.96 11.23 13.33 22.53 26.6 33.41 40.2 6.3 7.8 13.79 14.72 18.77 23.48 5.04 9.2 4.95 20.07 4.69 30.26-0.17 12.35-7.47 22.8-12.18 33.74-16.45 39.15-35.69 77.03-52.77 115.87-59.87 131.43-120.48 262.53-179.27 394.43-9.36 19.48-31.65 33.53-53.52 29.1-9.13-1.23-17.21-5.9-25.24-10.02-35.8-18.7-71.89-36.85-107.43-56.04-13.57-7.44-29.38-12.11-39.57-24.45-17.93-20.92-33.93-43.41-50.96-65.04-15.69-17.82-11.85-42.77-11.83-64.57-0.02-30.92 0.86-61.86-0.21-92.79-40.21 84.81-78.78 170.41-118.45 255.5-7.86 16.63-13.57 35.54-28.67 47.34-15.14 12.89-37.91 13.98-55.2 4.86-41.28-21.11-82.48-42.34-123.73-63.5-14.01-7.66-30.14-12.99-40.26-26.07q-21.35-27.19-42.53-54.56c-6-7.73-12.56-15.52-15.21-25.14-3.72-13.32-2.25-27.28-2.4-40.9-0.21-31.94 2.85-63.88 0.93-95.8-6.75 6.35-9.36 15.5-13.2 23.65-40.21 86.32-79.45 173.11-119.65 259.43-11.19 24.47-42.91 35.82-67.2 24.38-47.7-24.12-95.06-48.91-142.88-72.81-9.05-4.62-17.84-10.24-24.31-18.25-14.28-17.41-27.51-35.63-41.44-53.33-6.8-8.63-13.15-17.84-16.54-28.39-3.53-10.21-2.06-21.18-2.22-31.75 0.02-39.69 2.41-79.4 0.56-119.04-5.61 7.8-8.83 16.92-12.86 25.57-15.66 33.38-30.42 67.22-46.58 100.37-7.89 14.73-22.63 27.22-39.9 28-9.58 0.41-19.74 0.57-28.39-4.17-29.85-15.11-59.45-30.75-89.45-45.56-14.66-6.66-24.59-19.76-34.52-31.85-12.98-17.08-25.8-34.28-38.52-51.55-12.4-16.54-13.6-40.33-3.82-58.36 78.22-164.87 154.18-330.77 231.42-496.11 7.68-16.61 14.22-35 29.36-46.49zm11.18 77.36c-75.77 164.2-152.37 328.07-229.03 491.89 32.77 17.96 66.8 33.55 99.76 51.16 50.2-109.44 102.43-217.94 153.27-327.07 16.83-34.65 31.45-70.4 49.55-104.38 0.19 91.86-0.48 183.75-0.85 275.61-0.38 25.28 0.42 50.59-1.17 75.82 0 58.88-0.54 117.76-1.04 176.64 36.78 17.32 72.2 37.27 108.78 54.95 13.15 6.37 25.4 14.62 39.14 19.71 86.68-182.68 171.62-366.19 256.4-549.72 9.1-17.61 15.42-36.73 26.23-53.36 0.97 19.31 0.14 38.67-0.52 58-0.88 157-2.37 314-4.05 471.02 41.46 19.38 81.69 41.34 122.54 62.05 8.55 4.5 17.04 9.27 26.25 12.37 31.87-68.67 63.91-137.28 95.59-206.04 40.58-87.32 82.1-174.23 122.02-261.85 21.07-45.75 42.86-91.17 63.6-137.07 0.64 76.7-0.43 153.4-0.76 230.09-0.55 33.18 0.42 66.4-1.23 99.54-0.19 67.46-0.62 134.94-0.86 202.4 34.07 16.11 67.08 34.4 100.89 51.04 15.52 7.81 30.4 16.98 46.54 23.52 27.1-59.94 55.16-119.44 82.29-179.34 40.59-89.42 82.14-178.39 123.16-267.6 11.3-25.3 23.81-50.06 34.28-75.7-31.96-17.37-64.47-33.72-96.83-50.28-60.14 131.48-122.1 262.13-182 393.73-1.8 4.64-4.31 9-7.86 12.53-1.66-107.83-0.03-215.74-2.47-323.54 0.1-61.77-0.64-123.54-0.78-185.32-47.27-24.92-94.94-49.11-142.21-74.09-2.92-1.68-6.09-2.79-9.34-3.53-9.14 21.64-19.47 42.77-29.43 64.05-78.92 171.95-159.58 343.11-238.45 515.08-0.9 1.36-2.68 4.08-3.56 5.43-1.59-36.87-0.38-73.83-1.06-110.72-0.69-131.17-2.28-262.32-2.85-393.47 0.29-4.88-5.8-6.02-8.95-8.27-47.13-24-93.55-49.35-140.94-72.76-85.82 183.2-169.69 367.33-255.63 550.48-5.83 11.9-10.43 24.43-17.51 35.69-0.9-164.39-2.68-328.76-3.77-493.15-0.28-5.28 0.66-10.78-1.04-15.87-43.39-23.03-87.17-45.33-130.63-68.27-5.83-2.63-11.18-6.63-17.48-8.05-7.94 11.02-11.57 24.66-17.99 36.65z"/>
			</g>
		</g>
		<g id="&lt;Group&gt;">
			<path id="&lt;Path&gt;" class="s2" d="m335.25 528.1c6.42-11.99 10.05-25.63 17.99-36.65 6.3 1.42 11.65 5.42 17.48 8.05 43.46 22.94 87.24 45.24 130.63 68.27 1.7 5.09 0.76 10.59 1.04 15.87 1.09 164.39 2.87 328.76 3.77 493.15 7.08-11.26 11.68-23.79 17.51-35.69 85.94-183.15 169.81-367.28 255.63-550.48 47.39 23.41 93.81 48.76 140.94 72.76 3.15 2.25 9.24 3.39 8.95 8.27 0.57 131.15 2.16 262.3 2.85 393.47 0.68 36.89-0.53 73.85 1.06 110.72 0.88-1.35 2.66-4.07 3.56-5.43 78.87-171.97 159.53-343.13 238.45-515.08 9.96-21.28 20.29-42.41 29.43-64.05 3.25 0.74 6.42 1.85 9.34 3.53 47.27 24.98 94.94 49.17 142.21 74.09 0.14 61.78 0.88 123.55 0.78 185.32 2.44 107.8 0.81 215.71 2.47 323.54 3.55-3.53 6.06-7.89 7.86-12.53 59.9-131.6 121.86-262.25 182-393.73 32.36 16.56 64.87 32.91 96.83 50.28-10.47 25.64-22.98 50.4-34.28 75.7-41.02 89.21-82.57 178.18-123.16 267.6-27.13 59.9-55.19 119.4-82.29 179.34-16.14-6.54-31.02-15.71-46.54-23.52-33.81-16.64-66.82-34.93-100.89-51.04 0.24-67.46 0.67-134.94 0.86-202.4 1.65-33.14 0.68-66.36 1.23-99.54 0.33-76.69 1.4-153.39 0.76-230.09-20.74 45.9-42.53 91.32-63.6 137.07-39.92 87.62-81.44 174.53-122.02 261.85-31.68 68.76-63.72 137.37-95.59 206.04-9.21-3.1-17.7-7.87-26.25-12.37-40.85-20.71-81.08-42.67-122.54-62.05 1.68-157.02 3.17-314.02 4.05-471.02 0.66-19.33 1.49-38.69 0.52-58-10.81 16.63-17.13 35.75-26.23 53.36-84.78 183.53-169.72 367.04-256.4 549.72-13.74-5.09-25.99-13.34-39.14-19.71-36.58-17.68-72-37.63-108.78-54.95 0.5-58.88 1.04-117.76 1.04-176.64 1.59-25.23 0.79-50.54 1.17-75.82 0.37-91.86 1.04-183.75 0.85-275.61-18.1 33.98-32.72 69.73-49.55 104.38-50.84 109.13-103.07 217.63-153.27 327.07-32.96-17.61-66.99-33.2-99.76-51.16 76.66-163.82 153.26-327.69 229.03-491.89z"/>
		</g>
	</g>
</svg>